<svg xmlns="http://www.w3.org/2000/svg" viewBox="0 0 128 128">
    <style>
        path { fill: #AB47BC; }
        @media (prefers-color-scheme: dark) {
            path { fill: #CE93D8; }
        }
    </style>
    <path d="M40,112v-8H56v16H48A8,8,0,0,1,40,112ZM32,8a8,8,0,0,0,0,16h8V16A8,8,0,0,0,32,8ZM72,120h8a8,8,0,0,0,8-8v-8H72Zm48-80V64h-8v8a8,8,0,0,1-8,8v8a16,16,0,0,1-16,16V88H40v16A16,16,0,0,1,24,88V80a8,8,0,0,1-8-8V64H8V40h8V56h9.371A24.05806,24.05806,0,0,1,40,41.38232V24A16,16,0,0,1,56,40H72A16,16,0,0,1,88,24V41.38232A24.05806,24.05806,0,0,1,102.629,56H112V40ZM48,56H40V72h8Zm40,0H80V72h8Zm16-40a8,8,0,0,0-16,0v8h8A8,8,0,0,0,104,16Z" />
</svg>