<svg xmlns="http://www.w3.org/2000/svg" viewBox="0 0 32 32"><path d="M10,4.11451C11.67263,5.3361,14.268,7.543,14.268,9.875A4.33671,4.33671,0,0,1,10,14.268,4.33671,4.33671,0,0,1,5.73205,9.875c0-2.332,2.59532-4.5389,4.268-5.76049M10,2C7.42857,3.75,4,6.49226,4,9.875A6.06347,6.06347,0,0,0,10,16a6.06347,6.06347,0,0,0,6-6.125C16,6.49226,12.57143,3.75,10,2Z"/><polygon points="5 10 5 12 6 14 10 15 14 14 15 12 15 10 5 10"/><path d="M29.5,14a.5.5,0,0,0,.5-.5v-1a.5.5,0,0,0-.5-.5H24V6.5a.5.5,0,0,0-.5-.5h-1a.5.5,0,0,0-.5.5V12H20.5a.5.5,0,0,0-.5.5v1a.5.5,0,0,0,.5.5H22v8H14V20.5a.5.5,0,0,0-.5-.5h-1a.5.5,0,0,0-.5.5V22H6.5a.5.5,0,0,0-.5.5v1a.5.5,0,0,0,.5.5H12v5.5a.5.5,0,0,0,.5.5h1a.5.5,0,0,0,.5-.5V24h8v5.5a.5.5,0,0,0,.5.5h1a.5.5,0,0,0,.5-.5V24h5.5a.5.5,0,0,0,.5-.5v-1a.5.5,0,0,0-.5-.5H24V14Z" style="opacity:0.7000000000000001"/></svg>